<?xml version="1.0" standalone="no"?>
<!DOCTYPE svg PUBLIC "-//W3C//DTD SVG 20010904//EN"
 "http://www.w3.org/TR/2001/REC-SVG-20010904/DTD/svg10.dtd">
<svg version="1.0" xmlns="http://www.w3.org/2000/svg"
 width="512.000000pt" height="512.000000pt" viewBox="0 0 512.000000 512.000000"
 preserveAspectRatio="xMidYMid meet">
<metadata>
Created by potrace 1.14, written by Peter Selinger 2001-2017
</metadata>
<g transform="translate(0.000000,512.000000) scale(0.100000,-0.100000)"
fill="#000000" stroke="none">
<path d="M3212 4781 c-42 -27 -52 -54 -54 -160 -3 -101 10 -140 54 -165 35
-21 106 -17 161 9 37 17 65 65 61 106 -4 37 -63 170 -89 197 -31 33 -91 39
-133 13z"/>
<path d="M4241 4592 c-13 -2 -59 -38 -103 -80 -72 -70 -79 -81 -81 -118 -1
-50 17 -80 73 -119 49 -34 103 -38 144 -11 26 16 60 82 91 171 31 92 -32 172
-124 157z"/>
<path d="M3330 4280 c-223 -47 -404 -166 -540 -354 -84 -115 -156 -310 -159
-428 -1 -26 -5 -24 -73 45 -78 77 -89 87 -158 133 -108 73 -263 133 -395 153
-98 15 -280 7 -372 -17 -415 -106 -719 -464 -759 -892 -7 -85 -9 -90 -30 -90
-27 0 -147 -52 -203 -87 -152 -97 -281 -290 -308 -460 -9 -58 -10 -227 -1
-268 31 -154 102 -284 212 -389 63 -60 163 -120 251 -152 l80 -29 1305 -2
c1431 -3 1362 -5 1511 56 228 95 400 308 453 561 21 101 15 270 -13 368 -22
74 -67 174 -102 223 l-19 27 36 28 c236 187 358 447 349 739 -5 151 -52 314
-119 416 -14 21 -26 42 -26 45 0 9 -87 112 -125 147 -105 99 -232 172 -372
213 -119 35 -299 41 -423 14z"/>
<path d="M2384 4235 c-61 -26 -90 -96 -63 -148 17 -32 137 -157 153 -158 6 0
24 -3 39 -5 64 -11 142 76 142 160 0 42 -4 51 -33 76 -18 15 -52 33 -75 40
-23 8 -46 17 -52 21 -27 19 -83 26 -111 14z"/>
<path d="M4644 3740 c-11 -5 -32 -22 -47 -39 -22 -27 -25 -38 -22 -81 8 -95
51 -150 117 -150 41 0 170 54 204 86 29 27 34 38 34 77 0 37 -5 51 -31 76 -17
17 -40 31 -52 32 -115 5 -186 5 -203 -1z"/>
<path d="M4459 2827 c-18 -12 -45 -46 -60 -74 -47 -89 -18 -138 111 -192 84
-35 129 -39 166 -15 42 28 62 83 45 126 -5 13 -35 51 -66 86 -88 96 -133 112
-196 69z"/>
<path d="M1025 1265 c-52 -28 -62 -42 -184 -269 -206 -382 -200 -370 -195
-423 5 -54 26 -87 75 -121 29 -20 43 -23 91 -19 76 7 104 29 155 123 24 44 61
113 84 154 22 41 60 111 83 155 24 44 58 106 75 138 57 105 49 187 -23 242
-44 33 -119 43 -161 20z"/>
<path d="M1890 1267 c-52 -25 -64 -42 -171 -242 -29 -55 -75 -140 -102 -190
-89 -162 -110 -208 -110 -250 0 -134 160 -206 261 -117 17 15 61 83 97 152 37
69 82 152 100 185 134 248 145 272 145 314 0 58 -34 116 -79 137 -46 22 -109
27 -141 11z"/>
<path d="M2743 1259 c-44 -21 -54 -34 -118 -154 -21 -38 -50 -92 -65 -120 -37
-68 -116 -216 -157 -294 -47 -91 -44 -156 10 -214 44 -48 127 -63 183 -34 32
16 84 71 84 87 0 5 15 35 33 67 32 54 51 89 158 290 23 43 55 102 71 132 48
89 39 166 -25 222 -50 44 -109 50 -174 18z"/>
<path d="M3624 1269 c-41 -12 -83 -60 -124 -141 -18 -34 -35 -67 -40 -73 -4
-5 -33 -59 -65 -120 -187 -353 -183 -342 -145 -419 38 -78 135 -109 213 -70
48 25 43 17 243 389 115 215 129 245 128 287 -3 111 -100 179 -210 147z"/>
</g>
</svg>
